HIERARCHY
ROOT Hips
{
	OFFSET 0.000000 0.000000 0.000000
	CHANNELS 6 Xposition Yposition Zposition Xrotation Yrotation Zrotation
	JOINT LeftUpLeg_virtual
	{
		OFFSET 0.000000 0.000000 0.000000
		CHANNELS 3 Xrotation Yrotation Zrotation
		JOINT LeftUpLeg
		{
			OFFSET 11.394100 -6.187798 -0.413800
			CHANNELS 3 Xrotation Yrotation Zrotation
			JOINT LeftLeg
			{
				OFFSET 0.430247 -32.302673 3.732800
				CHANNELS 3 Xrotation Yrotation Zrotation
				JOINT LeftFoot
				{
					OFFSET -0.430247 -48.264931 -6.423300
					CHANNELS 3 Xrotation Yrotation Zrotation
					JOINT LeftToeBase
					{
						OFFSET 4.230900 -16.068199 23.438400
						CHANNELS 3 Xrotation Yrotation Zrotation
						JOINT LeftToe_End
						{
							OFFSET 4.510700 0.695400 19.974600
							CHANNELS 3 Xrotation Yrotation Zrotation
							End Site
							{
								OFFSET 0 0 0
							}
						}
					}
				}
			}
		}
	}
	JOINT RightUpLeg_virtual
	{
		OFFSET 0.000000 0.000000 0.000000
		CHANNELS 3 Xrotation Yrotation Zrotation
		JOINT RightUpLeg
		{
			OFFSET -11.333700 -6.187798 -0.413800
			CHANNELS 3 Xrotation Yrotation Zrotation
			JOINT RightLeg
			{
				OFFSET -0.430392 -32.302628 3.733000
				CHANNELS 3 Xrotation Yrotation Zrotation
				JOINT RightFoot
				{
					OFFSET 0.430392 -48.264973 -6.423500
					CHANNELS 3 Xrotation Yrotation Zrotation
					JOINT RightToeBase
					{
						OFFSET -4.230900 -16.068199 23.438400
						CHANNELS 3 Xrotation Yrotation Zrotation
						JOINT RightToe_End
						{
							OFFSET -4.510700 0.695400 19.974600
							CHANNELS 3 Xrotation Yrotation Zrotation
							End Site
							{
								OFFSET 0 0 0
							}
						}
					}
				}
			}
		}
	}
	JOINT Spine_virtual
	{
		OFFSET 0.000000 0.000000 0.000000
		CHANNELS 3 Xrotation Yrotation Zrotation
		JOINT Spine
		{
			OFFSET -0.002400 12.777504 0.315300
			CHANNELS 3 Xrotation Yrotation Zrotation
			JOINT Spine1
			{
				OFFSET -0.002067 5.816869 0.032633
				CHANNELS 3 Xrotation Yrotation Zrotation
				JOINT Spine1_split
				{
					OFFSET -0.002067 5.816869 0.032633
					CHANNELS 3 Xrotation Yrotation Zrotation
					JOINT Spine2
					{
						OFFSET -0.002067 5.816869 0.032633
						CHANNELS 3 Xrotation Yrotation Zrotation
						JOINT Neck_virtual
						{
							OFFSET 0.000000 0.000000 0.000000
							CHANNELS 3 Xrotation Yrotation Zrotation
							JOINT Neck
							{
								OFFSET -0.003700 21.199493 -0.826900
								CHANNELS 3 Xrotation Yrotation Zrotation
								JOINT Head
								{
									OFFSET 0.000000 20.442200 4.834800
									CHANNELS 3 Xrotation Yrotation Zrotation
									JOINT HeadTop_End
									{
										OFFSET 0.000000 34.668396 4.968400
										CHANNELS 3 Xrotation Yrotation Zrotation
										End Site
										{
											OFFSET 0 0 0
										}
									}
								}
							}
						}
						JOINT LeftShoulder_virtual
						{
							OFFSET 0.000000 0.000000 0.000000
							CHANNELS 3 Xrotation Yrotation Zrotation
							JOINT LeftShoulder
							{
								OFFSET 3.288150 8.794197 -1.372250
								CHANNELS 3 Xrotation Yrotation Zrotation
								JOINT LeftShoulder_split
								{
									OFFSET 3.288150 8.794197 -1.372250
									CHANNELS 3 Xrotation Yrotation Zrotation
									JOINT LeftArm
									{
										OFFSET 11.953299 -2.279007 -0.146200
										CHANNELS 3 Xrotation Yrotation Zrotation
										JOINT LeftForeArm
										{
											OFFSET 18.448900 0.000000 0.000000
											CHANNELS 3 Xrotation Yrotation Zrotation
											JOINT LeftHand
											{
												OFFSET 29.527798 0.000000 0.000000
												CHANNELS 3 Xrotation Yrotation Zrotation
												End Site
												{
													OFFSET 0 0 0
												}
											}
										}
									}
								}
							}
						}
						JOINT RightShoulder_virtual
						{
							OFFSET 0.000000 0.000000 0.000000
							CHANNELS 3 Xrotation Yrotation Zrotation
							JOINT RightShoulder
							{
								OFFSET -3.249400 8.794197 -1.372250
								CHANNELS 3 Xrotation Yrotation Zrotation
								JOINT RightShoulder_split
								{
									OFFSET -3.249400 8.794197 -1.372250
									CHANNELS 3 Xrotation Yrotation Zrotation
									JOINT RightArm
									{
										OFFSET -11.953299 -2.279007 -0.146200
										CHANNELS 3 Xrotation Yrotation Zrotation
										JOINT RightForeArm
										{
											OFFSET -18.448900 0.000000 0.000000
											CHANNELS 3 Xrotation Yrotation Zrotation
											JOINT RightHand
											{
												OFFSET -29.527802 0.000000 0.000000
												CHANNELS 3 Xrotation Yrotation Zrotation
												End Site
												{
													OFFSET 0 0 0
												}
											}
										}
									}
								}
							}
						}
					}
				}
			}
		}
	}
}
MOTION
Frames: 5
Frame Time: 0.03333333
-0.679044 99.338501 0.294514 0.000000 0.000000 0.000000 -5.203829 -5.437754 3.049547 -12.179283 10.475575 6.910658 14.851608 7.841983 0.622167 4.292722 0.691952 -5.117999 -0.102546 0.150415 -1.564249 0.000000 0.000000 0.000000 -4.681155 -4.323273 3.189451 1.851827 -14.374989 -6.801360 18.537673 -9.183649 -4.959088 -13.734698 -4.695168 5.889115 -5.371225 -0.056283 -0.378067 0.000000 0.000000 0.000000 -5.388501 -6.167643 2.700205 4.951615 1.580568 -1.820450 0.885288 0.332928 -0.331710 0.866228 0.342041 -0.005493 0.000000 0.000000 0.000000 1.175838 0.766930 -0.660330 1.476760 5.639425 0.259812 4.278610 -10.623346 3.600864 0.000000 0.000000 0.000000 1.088091 0.748125 -0.839451 -0.141810 -15.784437 -18.153147 -1.311607 -1.452317 -3.017124 13.621916 -1.805985 -32.936173 99.806030 -89.398017 99.440581 0.000000 0.000000 0.000000 0.881400 0.636352 -0.741584 0.428202 15.467836 12.599082 2.028429 3.031070 0.604167 7.357318 21.072073 38.497641 -173.885497 78.844562 173.280765 0.000000 0.000000 0.000000 
-0.221836 99.162949 0.148697 0.000000 0.000000 0.000000 -5.208337 -5.847033 3.108798 -12.155936 9.881770 6.686511 15.260128 7.676830 0.746265 3.921127 0.903551 -5.298240 -0.246834 0.109406 -1.453974 0.000000 0.000000 0.000000 -4.872616 -4.380590 3.234880 1.690524 -14.842797 -7.098242 18.582937 -9.199435 -4.960994 -13.745468 -4.732641 5.705382 -4.703810 -0.150148 -0.393398 0.000000 0.000000 0.000000 -5.530096 -6.308280 2.652147 5.061968 1.530973 -1.790184 0.934985 0.295162 -0.294324 0.843218 0.354741 -0.001929 0.000000 0.000000 0.000000 1.132554 0.722127 -0.626811 1.423372 5.604054 0.196260 4.286171 -10.522577 3.538515 0.000000 0.000000 0.000000 1.083546 0.710028 -0.819179 -0.148619 -15.804694 -18.142338 -1.145961 -1.507932 -2.972784 13.722527 -1.606558 -33.083186 105.101216 -89.307613 104.718978 0.000000 0.000000 0.000000 0.895423 0.620134 -0.718762 0.425444 15.625723 12.708670 2.069756 3.125585 0.792536 7.471381 21.229346 38.642588 -173.838888 79.103549 173.235782 0.000000 0.000000 0.000000 
0.330638 98.780769 0.128155 0.000000 0.000000 0.000000 -5.258612 -6.374366 3.256023 -12.538284 9.473209 6.409127 16.454346 7.521146 0.832299 3.020755 1.457867 -5.460708 -0.380154 0.095895 -1.422506 0.000000 0.000000 0.000000 -5.051893 -4.463706 3.357047 1.170659 -15.139314 -7.668024 19.168289 -9.130395 -4.920329 -14.194495 -4.875678 5.478710 -4.220770 -0.174848 -0.445088 0.000000 0.000000 0.000000 -5.704211 -6.521572 2.697278 5.203097 1.384125 -1.797098 0.995979 0.182521 -0.223706 0.809436 0.349198 -0.009754 0.000000 0.000000 0.000000 1.104602 0.605859 -0.555046 1.435732 5.563729 0.061615 4.262090 -10.455942 3.247940 0.000000 0.000000 0.000000 1.099618 0.595939 -0.755586 -0.161073 -15.829653 -18.156198 -1.000957 -1.511503 -2.860353 14.051649 -1.186391 -33.240041 124.917275 -89.079102 124.514799 0.000000 0.000000 0.000000 0.907362 0.524404 -0.647652 0.436723 15.737739 12.777559 2.067971 3.195548 0.842801 7.499694 21.722054 38.905324 -173.799177 79.529930 173.242626 0.000000 0.000000 0.000000 
0.912252 98.279968 0.155159 0.000000 0.000000 0.000000 -5.335355 -6.943790 3.478453 -13.300635 9.310025 6.067188 18.108944 7.376995 0.860093 1.727161 2.251847 -5.621011 -0.428496 0.109175 -1.450095 0.000000 0.000000 0.000000 -5.183814 -4.697244 3.551705 0.290354 -15.204908 -8.453664 20.110235 -8.916096 -4.839247 -14.841142 -5.044056 5.304610 -4.090569 -0.142725 -0.525424 0.000000 0.000000 0.000000 -5.826153 -6.816218 2.826396 5.325643 1.172254 -1.845470 1.051776 0.015429 -0.132372 0.779996 0.386265 -0.017288 0.000000 0.000000 0.000000 1.085949 0.436150 -0.462793 1.503005 5.521078 -0.129467 4.146706 -10.414679 2.739593 0.000000 0.000000 0.000000 1.130357 0.421382 -0.657927 -0.171764 -15.863200 -18.178506 -0.920097 -1.499225 -2.753398 14.557322 -0.591743 -33.411096 142.611768 -88.602266 142.190236 0.000000 0.000000 0.000000 0.910628 0.363436 -0.541085 0.474772 15.791906 12.791023 2.030314 3.176171 0.767689 7.374373 22.417470 39.303029 -173.735547 80.026478 173.261176 0.000000 0.000000 0.000000 
1.510791 97.741425 0.124634 0.000000 0.000000 0.000000 -5.431398 -7.565839 3.716970 -14.353462 9.355588 5.675135 19.919781 7.196014 0.830343 0.334393 3.175038 -5.851212 -0.418593 0.141233 -1.478230 0.000000 0.000000 0.000000 -5.256370 -5.186662 3.788685 -0.922277 -15.037787 -9.365082 21.209247 -8.519916 -4.728073 -15.399940 -5.183240 5.308531 -4.245111 -0.073259 -0.589403 0.000000 0.000000 0.000000 -5.846762 -7.229322 3.012027 5.390836 0.924345 -1.930195 1.092466 -0.189190 -0.033224 0.807165 0.428203 -0.013209 0.000000 0.000000 0.000000 1.071861 0.231125 -0.365774 1.597766 5.464876 -0.350227 3.899252 -10.412275 2.054855 0.000000 0.000000 0.000000 1.167788 0.206709 -0.544059 -0.177112 -15.908247 -18.203516 -0.902429 -1.515691 -2.681971 15.198083 0.148229 -33.607512 153.084552 -87.908749 152.640603 0.000000 0.000000 0.000000 0.912196 0.160145 -0.417203 0.543937 15.794722 12.753821 1.984558 3.103050 0.642947 7.098967 23.189792 39.852439 -173.619393 80.556002 173.254688 0.000000 0.000000 0.000000 
